<svg width="345" height="53" viewBox="0 0 345 53" fill="none" xmlns="http://www.w3.org/2000/svg">
    <g clip-path="url(#clip0_82_78)">
        <path d="M82.2186 5.60475L96.5103 5.60473L82.59 25.9612L96.5993 46.3239L82.0506 46.3221L67.9289 25.9612L82.2186 5.60475Z" fill="black"/>
        <path fill-rule="evenodd" clip-rule="evenodd" d="M108.845 36.8863C111.14 36.8863 113.001 35.1203 113.001 32.9417C113.001 30.7632 111.14 28.9972 108.845 28.9972C106.55 28.9972 104.69 30.7632 104.69 32.9417C104.69 35.1203 106.55 36.8863 108.845 36.8863ZM108.845 46.3405C116.641 46.3405 122.96 40.3417 122.96 32.9417C122.96 25.5418 116.641 19.543 108.845 19.543C101.05 19.543 94.7303 25.5418 94.7303 32.9417C94.7303 40.3417 101.05 46.3405 108.845 46.3405Z" fill="black"/>
        <path fill-rule="evenodd" clip-rule="evenodd" d="M138.9 5.58496H126.279V33.6318L126.298 33.6508C126.442 41.166 132.904 47.2163 140.855 47.2163C148.896 47.2163 155.414 41.0287 155.414 33.3958C155.414 25.7629 148.896 19.5753 140.855 19.5753C140.192 19.5753 139.539 19.6173 138.9 19.6988V5.58496ZM136.255 33.3958C136.255 30.9843 138.315 29.0295 140.855 29.0295C143.395 29.0295 145.455 30.9843 145.455 33.3958C145.455 35.8072 143.395 37.7621 140.855 37.7621C138.315 37.7621 136.255 35.8072 136.255 33.3958Z" fill="black"/>
        <path fill-rule="evenodd" clip-rule="evenodd" d="M170.782 5.58496H158.162V33.6318L158.181 33.6508C158.324 41.166 164.787 47.2163 172.738 47.2163C180.779 47.2163 187.297 41.0287 187.297 33.3958C187.297 25.7629 180.779 19.5753 172.738 19.5753C172.075 19.5753 171.422 19.6173 170.782 19.6988V5.58496ZM168.138 33.3958C168.138 30.9843 170.198 29.0295 172.738 29.0295C175.278 29.0295 177.338 30.9843 177.338 33.3958C177.338 35.8072 175.278 37.7621 172.738 37.7621C170.198 37.7621 168.138 35.8072 168.138 33.3958Z" fill="black"/>
        <path d="M190.616 5.58496H200.576V46.3409H190.616V5.58496Z" fill="black"/>
        <path fill-rule="evenodd" clip-rule="evenodd" d="M225.4 21.9799C228.215 24.2575 230 27.6479 230 31.4341H220.041H213.797H213.794C213.794 34.5045 216.416 36.9936 219.651 36.9936C219.651 39.6103 219.651 42.4636 219.651 46.4478C210.916 46.4478 203.834 39.7259 203.834 31.434H203.838C203.838 27.6479 205.623 24.2575 208.438 21.9799C210.721 20.132 213.683 19.0166 216.919 19.0166C220.155 19.0166 223.116 20.132 225.4 21.9799Z" fill="black"/>
        <path fill-rule="evenodd" clip-rule="evenodd" d="M28.5903 5.58496L14.2941 5.58498L0 25.9478L14.1261 46.3149L28.6793 46.3168L14.6656 25.9478L28.5903 5.58496ZM42.0813 5.59555L28.9156 25.9481L42.0774 46.3043L55.6225 25.9462L42.0813 5.59555Z" fill="black"/>
        <path d="M270.077 26.758C272.204 26.758 274.069 27.1737 275.674 28.005C277.298 28.8363 278.545 30.0253 279.415 31.572C280.304 33.0993 280.749 34.878 280.749 36.908C280.749 38.938 280.304 40.7167 279.415 42.244C278.545 43.752 277.298 44.9217 275.674 45.753C274.069 46.5843 272.204 47 270.077 47H263.001V26.758H270.077ZM269.932 43.549C272.059 43.549 273.702 42.969 274.862 41.809C276.022 40.649 276.602 39.0153 276.602 36.908C276.602 34.8007 276.022 33.1573 274.862 31.978C273.702 30.7793 272.059 30.18 269.932 30.18H267.061V43.549H269.932ZM293.184 47.203C291.289 47.203 289.549 46.7583 287.964 45.869C286.379 44.9797 285.122 43.752 284.194 42.186C283.266 40.6007 282.802 38.8123 282.802 36.821C282.802 34.849 283.266 33.08 284.194 31.514C285.122 29.9287 286.379 28.6913 287.964 27.802C289.549 26.9127 291.289 26.468 293.184 26.468C295.098 26.468 296.838 26.9127 298.404 27.802C299.989 28.6913 301.236 29.9287 302.145 31.514C303.073 33.08 303.537 34.849 303.537 36.821C303.537 38.8123 303.073 40.6007 302.145 42.186C301.236 43.752 299.989 44.9797 298.404 45.869C296.819 46.7583 295.079 47.203 293.184 47.203ZM293.184 43.578C294.402 43.578 295.475 43.3073 296.403 42.766C297.331 42.2053 298.056 41.4127 298.578 40.388C299.1 39.3633 299.361 38.1743 299.361 36.821C299.361 35.4677 299.1 34.2883 298.578 33.283C298.056 32.2583 297.331 31.4753 296.403 30.934C295.475 30.3927 294.402 30.122 293.184 30.122C291.966 30.122 290.883 30.3927 289.936 30.934C289.008 31.4753 288.283 32.2583 287.761 33.283C287.239 34.2883 286.978 35.4677 286.978 36.821C286.978 38.1743 287.239 39.3633 287.761 40.388C288.283 41.4127 289.008 42.2053 289.936 42.766C290.883 43.3073 291.966 43.578 293.184 43.578ZM305.572 36.85C305.572 34.8587 306.016 33.08 306.906 31.514C307.814 29.9287 309.042 28.701 310.589 27.831C312.155 26.9417 313.904 26.497 315.838 26.497C318.1 26.497 320.081 27.077 321.783 28.237C323.484 29.397 324.673 31.0017 325.35 33.051H320.681C320.217 32.0843 319.559 31.3593 318.709 30.876C317.877 30.3927 316.911 30.151 315.809 30.151C314.629 30.151 313.576 30.4313 312.648 30.992C311.739 31.5333 311.024 32.3067 310.502 33.312C309.999 34.3173 309.748 35.4967 309.748 36.85C309.748 38.184 309.999 39.3633 310.502 40.388C311.024 41.3933 311.739 42.1763 312.648 42.737C313.576 43.2783 314.629 43.549 315.809 43.549C316.911 43.549 317.877 43.3073 318.709 42.824C319.559 42.3213 320.217 41.5867 320.681 40.62H325.35C324.673 42.6887 323.484 44.303 321.783 45.463C320.101 46.6037 318.119 47.174 315.838 47.174C313.904 47.174 312.155 46.739 310.589 45.869C309.042 44.9797 307.814 43.752 306.906 42.186C306.016 40.62 305.572 38.8413 305.572 36.85ZM335.806 47.203C334.395 47.203 333.119 46.9613 331.978 46.478C330.857 45.9947 329.968 45.2987 329.31 44.39C328.653 43.4813 328.315 42.4083 328.295 41.171H332.645C332.703 42.0023 332.993 42.6597 333.515 43.143C334.057 43.6263 334.791 43.868 335.719 43.868C336.667 43.868 337.411 43.6457 337.952 43.201C338.494 42.737 338.764 42.1377 338.764 41.403C338.764 40.8037 338.581 40.3107 338.213 39.924C337.846 39.5373 337.382 39.2377 336.821 39.025C336.28 38.793 335.526 38.5417 334.559 38.271C333.245 37.8843 332.172 37.5073 331.34 37.14C330.528 36.7533 329.823 36.183 329.223 35.429C328.643 34.6557 328.353 33.631 328.353 32.355C328.353 31.1563 328.653 30.1123 329.252 29.223C329.852 28.3337 330.693 27.657 331.775 27.193C332.858 26.7097 334.095 26.468 335.487 26.468C337.575 26.468 339.267 26.9803 340.562 28.005C341.877 29.0103 342.602 30.4217 342.737 32.239H338.271C338.233 31.543 337.933 30.9727 337.372 30.528C336.831 30.064 336.106 29.832 335.197 29.832C334.405 29.832 333.767 30.035 333.283 30.441C332.819 30.847 332.587 31.4367 332.587 32.21C332.587 32.7513 332.761 33.2057 333.109 33.573C333.477 33.921 333.921 34.211 334.443 34.443C334.985 34.6557 335.739 34.907 336.705 35.197C338.02 35.5837 339.093 35.9703 339.924 36.357C340.756 36.7437 341.471 37.3237 342.07 38.097C342.67 38.8703 342.969 39.8853 342.969 41.142C342.969 42.2247 342.689 43.23 342.128 44.158C341.568 45.086 340.746 45.8303 339.663 46.391C338.581 46.9323 337.295 47.203 335.806 47.203Z" fill="#828282"/>
    </g>
    <defs>
        <clipPath id="clip0_82_78">
            <rect width="345" height="53" fill="white"/>
        </clipPath>
    </defs>
</svg>
