<svg width="1200" height="630" viewBox="0 0 1200 630" fill="none" xmlns="http://www.w3.org/2000/svg">
    <g clip-path="url(#clip0_86_2)">
        <rect width="1200" height="630" fill="white"/>
        <g filter="url(#filter0_f_86_2)">
            <rect x="-48.0745" y="-66.5742" width="161.637" height="618.511" transform="rotate(-32.1204 -48.0745 -66.5742)" fill="url(#paint0_linear_86_2)" fill-opacity="0.5"/>
        </g>
        <path d="M99.848 273V212.8H120.402C127.454 212.8 133.245 214.061 137.774 216.584C142.361 219.049 145.743 222.547 147.922 227.076C150.158 231.548 151.276 236.823 151.276 242.9C151.276 248.977 150.158 254.281 147.922 258.81C145.743 263.282 142.361 266.779 137.774 269.302C133.245 271.767 127.454 273 120.402 273H99.848ZM110.856 263.54H119.886C124.931 263.54 128.916 262.737 131.84 261.132C134.764 259.469 136.857 257.119 138.118 254.08C139.379 250.984 140.01 247.257 140.01 242.9C140.01 238.6 139.379 234.902 138.118 231.806C136.857 228.71 134.764 226.331 131.84 224.668C128.916 223.005 124.931 222.174 119.886 222.174H110.856V263.54ZM181.199 274.032C177.071 274.032 173.344 273.086 170.019 271.194C166.751 269.302 164.142 266.693 162.193 263.368C160.301 259.985 159.355 256.087 159.355 251.672C159.355 247.257 160.329 243.387 162.279 240.062C164.228 236.679 166.837 234.042 170.105 232.15C173.43 230.258 177.157 229.312 181.285 229.312C185.355 229.312 189.025 230.258 192.293 232.15C195.618 234.042 198.227 236.679 200.119 240.062C202.068 243.387 203.043 247.257 203.043 251.672C203.043 256.087 202.068 259.985 200.119 263.368C198.227 266.693 195.618 269.302 192.293 271.194C188.967 273.086 185.269 274.032 181.199 274.032ZM181.199 264.486C184.065 264.486 186.559 263.425 188.681 261.304C190.802 259.125 191.863 255.915 191.863 251.672C191.863 247.429 190.802 244.247 188.681 242.126C186.559 239.947 184.094 238.858 181.285 238.858C178.361 238.858 175.838 239.947 173.717 242.126C171.653 244.247 170.621 247.429 170.621 251.672C170.621 255.915 171.653 259.125 173.717 261.304C175.838 263.425 178.332 264.486 181.199 264.486ZM233.783 274.032C229.426 274.032 225.584 273.086 222.259 271.194C218.934 269.302 216.296 266.665 214.347 263.282C212.455 259.899 211.509 256.029 211.509 251.672C211.509 247.315 212.455 243.445 214.347 240.062C216.296 236.679 218.934 234.042 222.259 232.15C225.584 230.258 229.426 229.312 233.783 229.312C239.23 229.312 243.816 230.745 247.543 233.612C251.27 236.421 253.649 240.32 254.681 245.308H243.071C242.498 243.244 241.351 241.639 239.631 240.492C237.968 239.288 235.99 238.686 233.697 238.686C230.658 238.686 228.078 239.833 225.957 242.126C223.836 244.419 222.775 247.601 222.775 251.672C222.775 255.743 223.836 258.925 225.957 261.218C228.078 263.511 230.658 264.658 233.697 264.658C235.99 264.658 237.968 264.085 239.631 262.938C241.351 261.791 242.498 260.157 243.071 258.036H254.681C253.649 262.852 251.27 266.722 247.543 269.646C243.816 272.57 239.23 274.032 233.783 274.032ZM280.447 274.032C275.115 274.032 270.987 272.369 268.063 269.044C265.197 265.719 263.763 260.845 263.763 254.424V230.344H274.685V253.392C274.685 257.061 275.431 259.871 276.921 261.82C278.412 263.769 280.763 264.744 283.973 264.744C287.012 264.744 289.506 263.655 291.455 261.476C293.462 259.297 294.465 256.259 294.465 252.36V230.344H305.473V273H295.755L294.895 265.776C293.577 268.299 291.656 270.305 289.133 271.796C286.668 273.287 283.773 274.032 280.447 274.032ZM316.774 273V230.344H326.492L327.438 236.106C328.814 234.042 330.62 232.408 332.856 231.204C335.149 229.943 337.786 229.312 340.768 229.312C347.361 229.312 352.034 231.863 354.786 236.966C356.334 234.615 358.398 232.752 360.978 231.376C363.615 230 366.482 229.312 369.578 229.312C375.139 229.312 379.41 230.975 382.392 234.3C385.373 237.625 386.864 242.499 386.864 248.92V273H375.856V249.952C375.856 246.283 375.139 243.473 373.706 241.524C372.33 239.575 370.18 238.6 367.256 238.6C364.274 238.6 361.866 239.689 360.032 241.868C358.254 244.047 357.366 247.085 357.366 250.984V273H346.358V249.952C346.358 246.283 345.641 243.473 344.208 241.524C342.774 239.575 340.567 238.6 337.586 238.6C334.662 238.6 332.282 239.689 330.448 241.868C328.67 244.047 327.782 247.085 327.782 250.984V273H316.774ZM418.041 274.032C413.741 274.032 409.928 273.115 406.603 271.28C403.277 269.445 400.669 266.865 398.777 263.54C396.885 260.215 395.939 256.373 395.939 252.016C395.939 247.601 396.856 243.674 398.691 240.234C400.583 236.794 403.163 234.128 406.431 232.236C409.756 230.287 413.655 229.312 418.127 229.312C422.312 229.312 426.01 230.229 429.221 232.064C432.431 233.899 434.925 236.421 436.703 239.632C438.537 242.785 439.455 246.311 439.455 250.21C439.455 250.841 439.426 251.5 439.369 252.188C439.369 252.876 439.34 253.593 439.283 254.338H406.861C407.09 257.663 408.237 260.272 410.301 262.164C412.422 264.056 414.973 265.002 417.955 265.002C420.191 265.002 422.054 264.515 423.545 263.54C425.093 262.508 426.239 261.189 426.985 259.584H438.165C437.362 262.279 436.015 264.744 434.123 266.98C432.288 269.159 429.995 270.879 427.243 272.14C424.548 273.401 421.481 274.032 418.041 274.032ZM418.127 238.256C415.432 238.256 413.053 239.03 410.989 240.578C408.925 242.069 407.606 244.362 407.033 247.458H428.275C428.103 244.649 427.071 242.413 425.179 240.75C423.287 239.087 420.936 238.256 418.127 238.256ZM448.713 273V230.344H458.431L459.291 237.568C460.61 235.045 462.502 233.039 464.967 231.548C467.49 230.057 470.442 229.312 473.825 229.312C479.1 229.312 483.199 230.975 486.123 234.3C489.047 237.625 490.509 242.499 490.509 248.92V273H479.501V249.952C479.501 246.283 478.756 243.473 477.265 241.524C475.774 239.575 473.452 238.6 470.299 238.6C467.203 238.6 464.652 239.689 462.645 241.868C460.696 244.047 459.721 247.085 459.721 250.984V273H448.713ZM520.041 273C515.569 273 511.986 271.911 509.291 269.732C506.597 267.553 505.249 263.683 505.249 258.122V239.546H497.939V230.344H505.249L506.539 218.906H516.257V230.344H527.781V239.546H516.257V258.208C516.257 260.272 516.687 261.705 517.547 262.508C518.465 263.253 520.013 263.626 522.191 263.626H527.523V273H520.041ZM551.939 274.032C548.269 274.032 545.259 273.459 542.909 272.312C540.558 271.108 538.809 269.531 537.663 267.582C536.516 265.633 535.943 263.483 535.943 261.132C535.943 257.176 537.491 253.965 540.587 251.5C543.683 249.035 548.327 247.802 554.519 247.802H565.355V246.77C565.355 243.846 564.523 241.696 562.861 240.32C561.198 238.944 559.134 238.256 556.669 238.256C554.433 238.256 552.483 238.801 550.821 239.89C549.158 240.922 548.126 242.47 547.725 244.534H536.975C537.261 241.438 538.293 238.743 540.071 236.45C541.905 234.157 544.256 232.408 547.123 231.204C549.989 229.943 553.2 229.312 556.755 229.312C562.832 229.312 567.619 230.831 571.117 233.87C574.614 236.909 576.363 241.209 576.363 246.77V273H566.989L565.957 266.12C564.695 268.413 562.918 270.305 560.625 271.796C558.389 273.287 555.493 274.032 551.939 274.032ZM554.433 265.432C557.586 265.432 560.023 264.4 561.743 262.336C563.52 260.272 564.638 257.721 565.097 254.682H555.723C552.799 254.682 550.706 255.227 549.445 256.316C548.183 257.348 547.553 258.638 547.553 260.186C547.553 261.849 548.183 263.139 549.445 264.056C550.706 264.973 552.369 265.432 554.433 265.432ZM605.285 273C600.813 273 597.23 271.911 594.535 269.732C591.841 267.553 590.493 263.683 590.493 258.122V239.546H583.183V230.344H590.493L591.783 218.906H601.501V230.344H613.025V239.546H601.501V258.208C601.501 260.272 601.931 261.705 602.791 262.508C603.709 263.253 605.257 263.626 607.435 263.626H612.767V273H605.285ZM628.411 223.722C626.404 223.722 624.741 223.12 623.423 221.916C622.161 220.712 621.531 219.193 621.531 217.358C621.531 215.523 622.161 214.033 623.423 212.886C624.741 211.682 626.404 211.08 628.411 211.08C630.417 211.08 632.051 211.682 633.313 212.886C634.631 214.033 635.291 215.523 635.291 217.358C635.291 219.193 634.631 220.712 633.313 221.916C632.051 223.12 630.417 223.722 628.411 223.722ZM622.907 273V230.344H633.915V273H622.907ZM665.872 274.032C661.744 274.032 658.018 273.086 654.692 271.194C651.424 269.302 648.816 266.693 646.866 263.368C644.974 259.985 644.028 256.087 644.028 251.672C644.028 247.257 645.003 243.387 646.952 240.062C648.902 236.679 651.51 234.042 654.778 232.15C658.104 230.258 661.83 229.312 665.958 229.312C670.029 229.312 673.698 230.258 676.966 232.15C680.292 234.042 682.9 236.679 684.792 240.062C686.742 243.387 687.716 247.257 687.716 251.672C687.716 256.087 686.742 259.985 684.792 263.368C682.9 266.693 680.292 269.302 676.966 271.194C673.641 273.086 669.943 274.032 665.872 274.032ZM665.872 264.486C668.739 264.486 671.233 263.425 673.354 261.304C675.476 259.125 676.536 255.915 676.536 251.672C676.536 247.429 675.476 244.247 673.354 242.126C671.233 239.947 668.768 238.858 665.958 238.858C663.034 238.858 660.512 239.947 658.39 242.126C656.326 244.247 655.294 247.429 655.294 251.672C655.294 255.915 656.326 259.125 658.39 261.304C660.512 263.425 663.006 264.486 665.872 264.486ZM697.559 273V230.344H707.277L708.137 237.568C709.455 235.045 711.347 233.039 713.813 231.548C716.335 230.057 719.288 229.312 722.671 229.312C727.945 229.312 732.045 230.975 734.969 234.3C737.893 237.625 739.355 242.499 739.355 248.92V273H728.347V249.952C728.347 246.283 727.601 243.473 726.111 241.524C724.62 239.575 722.298 238.6 719.145 238.6C716.049 238.6 713.497 239.689 711.491 241.868C709.541 244.047 708.567 247.085 708.567 250.984V273H697.559Z" fill="url(#paint1_linear_86_2)"/>
        <g clip-path="url(#clip1_86_2)">
            <path d="M191.473 102.253L208.99 102.253L191.928 127.462L209.099 152.679L191.267 152.677L173.959 127.462L191.473 102.253Z" fill="black"/>
            <path fill-rule="evenodd" clip-rule="evenodd" d="M224.108 140.992C226.921 140.992 229.201 138.805 229.201 136.107C229.201 133.41 226.921 131.223 224.108 131.223C221.295 131.223 219.015 133.41 219.015 136.107C219.015 138.805 221.295 140.992 224.108 140.992ZM224.108 152.7C233.662 152.7 241.408 145.271 241.408 136.107C241.408 126.943 233.662 119.515 224.108 119.515C214.553 119.515 206.808 126.943 206.808 136.107C206.808 145.271 214.553 152.7 224.108 152.7Z" fill="black"/>
            <path fill-rule="evenodd" clip-rule="evenodd" d="M260.944 102.229H245.476V136.961L245.499 136.985C245.675 146.291 253.595 153.784 263.34 153.784C273.196 153.784 281.185 146.121 281.185 136.669C281.185 127.216 273.196 119.554 263.34 119.554C262.528 119.554 261.728 119.606 260.944 119.707V102.229ZM257.703 136.669C257.703 133.682 260.227 131.262 263.34 131.262C266.454 131.262 268.978 133.682 268.978 136.669C268.978 139.655 266.454 142.076 263.34 142.076C260.227 142.076 257.703 139.655 257.703 136.669Z" fill="black"/>
            <path fill-rule="evenodd" clip-rule="evenodd" d="M300.021 102.229H284.553V136.961L284.576 136.985C284.752 146.291 292.672 153.784 302.418 153.784C312.273 153.784 320.262 146.121 320.262 136.669C320.262 127.216 312.273 119.554 302.418 119.554C301.605 119.554 300.805 119.606 300.021 119.707V102.229ZM296.78 136.669C296.78 133.682 299.304 131.262 302.418 131.262C305.531 131.262 308.055 133.682 308.055 136.669C308.055 139.655 305.531 142.076 302.418 142.076C299.304 142.076 296.78 139.655 296.78 136.669Z" fill="black"/>
            <path d="M324.33 102.229H336.537V152.7H324.33V102.229Z" fill="black"/>
            <path fill-rule="evenodd" clip-rule="evenodd" d="M366.963 122.532C370.413 125.352 372.601 129.551 372.601 134.24H360.394H352.742H352.738C352.738 138.042 355.951 141.125 359.916 141.125C359.916 144.365 359.916 147.898 359.916 152.832C349.21 152.832 340.531 144.508 340.531 134.24H340.535C340.535 129.551 342.723 125.352 346.173 122.532C348.972 120.244 352.602 118.862 356.568 118.862C360.534 118.862 364.164 120.244 366.963 122.532Z" fill="black"/>
            <path fill-rule="evenodd" clip-rule="evenodd" d="M125.744 102.229L108.222 102.229L90.7022 127.445L108.016 152.667L125.853 152.67L108.677 127.445L125.744 102.229ZM142.279 102.241L126.143 127.445L142.274 152.654L158.876 127.443L142.279 102.241Z" fill="black"/>
        </g>
        <path fill-rule="evenodd" clip-rule="evenodd" d="M844.503 434.033L814.832 434.033L785.166 389.033L814.483 344.024L844.687 344.02L815.603 389.034L844.503 434.033ZM872.037 434.01L844.713 389.034L872.029 344.048L900.141 389.038L872.037 434.01Z" fill="url(#paint2_linear_86_2)"/>
        <path fill-rule="evenodd" clip-rule="evenodd" d="M1104.21 299.014L1074.54 299.014L1044.87 254.014L1074.19 209.005L1104.39 209.001L1075.31 254.014L1104.21 299.014ZM1131.74 298.991L1104.42 254.014L1131.73 209.029L1159.85 254.018L1131.74 298.991Z" fill="url(#paint3_linear_86_2)"/>
        <path fill-rule="evenodd" clip-rule="evenodd" d="M1103.88 569.053L1074.21 569.053L1044.55 524.053L1073.86 479.044L1104.07 479.04L1074.98 524.053L1103.88 569.053ZM1131.42 569.03L1104.09 524.053L1131.41 479.068L1159.52 524.057L1131.42 569.03Z" fill="url(#paint4_linear_86_2)"/>
        <path fill-rule="evenodd" clip-rule="evenodd" d="M931.32 569.053L901.65 569.053L871.983 524.053L901.301 479.044L931.505 479.04L902.421 524.053L931.32 569.053ZM958.855 569.03L931.53 524.053L958.846 479.068L986.958 524.057L958.855 569.03Z" fill="url(#paint5_linear_86_2)"/>
        <path fill-rule="evenodd" clip-rule="evenodd" d="M1191.03 434.033L1161.36 434.033L1131.69 389.033L1161.01 344.024L1191.21 344.02L1162.13 389.034L1191.03 434.033ZM1218.56 434.01L1191.24 389.034L1218.55 344.048L1246.66 389.038L1218.56 434.01Z" fill="url(#paint6_linear_86_2)"/>
        <path fill-rule="evenodd" clip-rule="evenodd" d="M1190.7 704.072L1161.03 704.072L1131.36 659.073L1160.68 614.063L1190.89 614.059L1161.8 659.073L1190.7 704.072ZM1218.23 704.05L1190.91 659.073L1218.23 614.087L1246.34 659.077L1218.23 704.05Z" fill="url(#paint7_linear_86_2)"/>
        <path fill-rule="evenodd" clip-rule="evenodd" d="M758.337 569.053L728.666 569.053L699 524.053L728.318 479.044L758.522 479.04L729.437 524.053L758.337 569.053ZM785.871 569.03L758.547 524.053L785.863 479.068L813.975 524.057L785.871 569.03Z" fill="url(#paint8_linear_86_2)"/>
        <path fill-rule="evenodd" clip-rule="evenodd" d="M1018.04 434.033L988.372 434.033L958.706 389.033L988.023 344.024L1018.23 344.02L989.143 389.034L1018.04 434.033ZM1045.58 434.01L1018.25 389.034L1045.57 344.048L1073.68 389.038L1045.58 434.01Z" fill="url(#paint9_linear_86_2)"/>
        <path fill-rule="evenodd" clip-rule="evenodd" d="M1017.72 704.072L988.046 704.072L958.38 659.073L987.698 614.063L1017.9 614.059L988.817 659.073L1017.72 704.072ZM1045.25 704.05L1017.93 659.073L1045.24 614.087L1073.36 659.077L1045.25 704.05Z" fill="url(#paint10_linear_86_2)"/>
        <path fill-rule="evenodd" clip-rule="evenodd" d="M844.503 704.072L814.832 704.072L785.166 659.073L814.483 614.063L844.687 614.059L815.603 659.073L844.503 704.072ZM872.037 704.05L844.713 659.073L872.029 614.087L900.141 659.077L872.037 704.05Z" fill="url(#paint11_linear_86_2)"/>
    </g>
    <defs>
        <filter id="filter0_f_86_2" x="-232.075" y="-336.517" width="833.758" height="977.779" filterUnits="userSpaceOnUse" color-interpolation-filters="sRGB">
            <feFlood flood-opacity="0" result="BackgroundImageFix"/>
            <feBlend mode="normal" in="SourceGraphic" in2="BackgroundImageFix" result="shape"/>
            <feGaussianBlur stdDeviation="92" result="effect1_foregroundBlur_86_2"/>
        </filter>
        <linearGradient id="paint0_linear_86_2" x1="129.648" y1="4.03284" x2="-65.3231" y2="56.6803" gradientUnits="userSpaceOnUse">
            <stop stop-color="#D9D9D9"/>
            <stop offset="1" stop-color="#D9D9D9" stop-opacity="0"/>
        </linearGradient>
        <linearGradient id="paint1_linear_86_2" x1="497" y1="188" x2="497" y2="503" gradientUnits="userSpaceOnUse">
            <stop stop-color="#11FFF1"/>
            <stop offset="0.8" stop-color="#00FFF0"/>
            <stop offset="1" stop-color="#00FFF0"/>
        </linearGradient>
        <linearGradient id="paint2_linear_86_2" x1="842.653" y1="434.033" x2="842.653" y2="344.02" gradientUnits="userSpaceOnUse">
            <stop stop-color="#00FFF0"/>
            <stop offset="0.22" stop-color="#00FFF0"/>
            <stop offset="1" stop-color="#11FFF1"/>
        </linearGradient>
        <linearGradient id="paint3_linear_86_2" x1="1102.36" y1="299.014" x2="1102.36" y2="209.001" gradientUnits="userSpaceOnUse">
            <stop stop-color="#00FFF0"/>
            <stop offset="0.22" stop-color="#00FFF0"/>
            <stop offset="1" stop-color="#11FFF1"/>
        </linearGradient>
        <linearGradient id="paint4_linear_86_2" x1="1102.03" y1="569.053" x2="1102.03" y2="479.04" gradientUnits="userSpaceOnUse">
            <stop stop-color="#00FFF0"/>
            <stop offset="0.22" stop-color="#00FFF0"/>
            <stop offset="1" stop-color="#11FFF1"/>
        </linearGradient>
        <linearGradient id="paint5_linear_86_2" x1="929.471" y1="569.053" x2="929.471" y2="479.04" gradientUnits="userSpaceOnUse">
            <stop stop-color="#00FFF0"/>
            <stop offset="0.22" stop-color="#00FFF0"/>
            <stop offset="1" stop-color="#11FFF1"/>
        </linearGradient>
        <linearGradient id="paint6_linear_86_2" x1="1189.18" y1="434.033" x2="1189.18" y2="344.02" gradientUnits="userSpaceOnUse">
            <stop stop-color="#00FFF0"/>
            <stop offset="0.22" stop-color="#00FFF0"/>
            <stop offset="1" stop-color="#11FFF1"/>
        </linearGradient>
        <linearGradient id="paint7_linear_86_2" x1="1188.85" y1="704.072" x2="1188.85" y2="614.059" gradientUnits="userSpaceOnUse">
            <stop stop-color="#00FFF0"/>
            <stop offset="0.22" stop-color="#00FFF0"/>
            <stop offset="1" stop-color="#11FFF1"/>
        </linearGradient>
        <linearGradient id="paint8_linear_86_2" x1="756.488" y1="569.053" x2="756.488" y2="479.04" gradientUnits="userSpaceOnUse">
            <stop stop-color="#00FFF0"/>
            <stop offset="0.22" stop-color="#00FFF0"/>
            <stop offset="1" stop-color="#11FFF1"/>
        </linearGradient>
        <linearGradient id="paint9_linear_86_2" x1="1016.19" y1="434.033" x2="1016.19" y2="344.02" gradientUnits="userSpaceOnUse">
            <stop stop-color="#00FFF0"/>
            <stop offset="0.22" stop-color="#00FFF0"/>
            <stop offset="1" stop-color="#11FFF1"/>
        </linearGradient>
        <linearGradient id="paint10_linear_86_2" x1="1015.87" y1="704.072" x2="1015.87" y2="614.059" gradientUnits="userSpaceOnUse">
            <stop stop-color="#00FFF0"/>
            <stop offset="0.22" stop-color="#00FFF0"/>
            <stop offset="1" stop-color="#11FFF1"/>
        </linearGradient>
        <linearGradient id="paint11_linear_86_2" x1="842.653" y1="704.072" x2="842.653" y2="614.059" gradientUnits="userSpaceOnUse">
            <stop stop-color="#00FFF0"/>
            <stop offset="0.22" stop-color="#00FFF0"/>
            <stop offset="1" stop-color="#11FFF1"/>
        </linearGradient>
        <clipPath id="clip0_86_2">
            <rect width="1200" height="630" fill="white"/>
        </clipPath>
        <clipPath id="clip1_86_2">
            <rect width="295" height="67" fill="white" transform="translate(85 94)"/>
        </clipPath>
    </defs>
</svg>
